<svg width="48" height="48" viewBox="0 0 48 48" fill="none" xmlns="http://www.w3.org/2000/svg">
<rect width="48" height="48" rx="24" fill="#141B22"/>
<path d="M24.35 17.625C23.0889 17.6248 21.856 17.9985 20.8073 18.699C19.7586 19.3995 18.9412 20.3952 18.4584 21.5603C17.9756 22.7254 17.8491 24.0074 18.095 25.2444C18.3409 26.4813 18.9481 27.6175 19.8397 28.5094C20.7314 29.4012 21.8675 30.0086 23.1044 30.2548C24.3413 30.5009 25.6234 30.3747 26.7886 29.8922C27.9537 29.4096 28.9496 28.5924 29.6503 27.5438C30.351 26.4952 30.725 25.2624 30.725 24.0013C30.7233 22.3109 30.0511 20.6903 28.856 19.495C27.6609 18.2996 26.0404 17.6271 24.35 17.625Z" fill="#21E786"/>
<path d="M34.4853 22.877H32.9865C32.6881 22.877 32.4019 22.9955 32.1909 23.2065C31.9799 23.4175 31.8613 23.7037 31.8613 24.0021C31.8613 24.3006 31.9799 24.5868 32.1909 24.7978C32.4019 25.0088 32.6881 25.1273 32.9865 25.1273H34.4853C34.7837 25.1273 35.0699 25.0088 35.2809 24.7978C35.4919 24.5868 35.6104 24.3006 35.6104 24.0021C35.6104 23.7037 35.4919 23.4175 35.2809 23.2065C35.0699 22.9955 34.7837 22.877 34.4853 22.877Z" fill="#21E786"/>
<path d="M24.3491 31.5C24.0509 31.5004 23.765 31.6192 23.5542 31.8301C23.3434 32.041 23.2249 32.327 23.2246 32.6252V34.1254C23.2246 34.4236 23.3431 34.7095 23.5539 34.9204C23.7648 35.1313 24.0508 35.2497 24.349 35.2497C24.6472 35.2497 24.9332 35.1313 25.144 34.9204C25.3549 34.7095 25.4733 34.4236 25.4733 34.1254V32.6252C25.4731 32.327 25.3546 32.0411 25.1439 31.8301C24.9331 31.6192 24.6473 31.5005 24.3491 31.5Z" fill="#21E786"/>
<path d="M16.8566 24.0021C16.8563 23.7039 16.7378 23.418 16.527 23.2071C16.3162 22.9961 16.0303 22.8774 15.7321 22.877H14.2336C13.9352 22.877 13.649 22.9955 13.438 23.2065C13.2269 23.4175 13.1084 23.7037 13.1084 24.0021C13.1084 24.3006 13.2269 24.5868 13.438 24.7978C13.649 25.0088 13.9352 25.1273 14.2336 25.1273H15.7321C16.0303 25.1269 16.3162 25.0082 16.527 24.7972C16.7378 24.5863 16.8563 24.3003 16.8566 24.0021Z" fill="#21E786"/>
<path d="M24.3499 16.4997C24.6481 16.4993 24.9339 16.3806 25.1447 16.1696C25.3555 15.9587 25.474 15.6728 25.4743 15.3746V13.8744C25.4743 13.5762 25.3558 13.2902 25.145 13.0793C24.9341 12.8685 24.6481 12.75 24.3499 12.75C24.0517 12.75 23.7658 12.8685 23.5549 13.0793C23.344 13.2902 23.2256 13.5762 23.2256 13.8744V15.3746C23.2258 15.6727 23.3443 15.9587 23.5551 16.1696C23.7658 16.3805 24.0517 16.4993 24.3499 16.4997Z" fill="#21E786"/>
<path d="M31.2452 18.6966L32.306 17.6358C32.4107 17.5315 32.4938 17.4075 32.5506 17.271C32.6074 17.1345 32.6367 16.9882 32.6369 16.8403C32.637 16.6925 32.608 16.5461 32.5515 16.4094C32.495 16.2728 32.4121 16.1487 32.3075 16.0442C32.203 15.9396 32.0789 15.8567 31.9423 15.8002C31.8057 15.7437 31.6592 15.7147 31.5114 15.7148C31.3636 15.715 31.2172 15.7443 31.0807 15.8011C30.9442 15.8578 30.8202 15.941 30.7159 16.0457L29.6551 17.1065C29.5504 17.2109 29.4672 17.3348 29.4104 17.4713C29.3537 17.6078 29.3244 17.7542 29.3242 17.902C29.3241 18.0499 29.3531 18.1963 29.4096 18.3329C29.4661 18.4695 29.549 18.5936 29.6535 18.6982C29.7581 18.8027 29.8822 18.8856 30.0188 18.9421C30.1554 18.9986 30.3019 19.0276 30.4497 19.0275C30.5975 19.0273 30.7439 18.998 30.8804 18.9413C31.0169 18.8845 31.1409 18.8013 31.2452 18.6966Z" fill="#21E786"/>
<path d="M31.245 29.3073C31.1407 29.2026 31.0167 29.1195 30.8802 29.0627C30.7437 29.006 30.5974 28.9767 30.4496 28.9766C30.3017 28.9764 30.1554 29.0055 30.0188 29.062C29.8822 29.1185 29.7581 29.2014 29.6535 29.3059C29.549 29.4104 29.4661 29.5345 29.4096 29.6711C29.3531 29.8077 29.3241 29.9541 29.3242 30.1019C29.3243 30.2497 29.3536 30.3961 29.4104 30.5326C29.4671 30.6691 29.5502 30.793 29.6549 30.8974L30.7157 31.9581C30.8201 32.0628 30.944 32.146 31.0805 32.2027C31.217 32.2594 31.3634 32.2887 31.5112 32.2889C31.659 32.289 31.8054 32.26 31.942 32.2035C32.0786 32.1469 32.2027 32.0641 32.3072 31.9595C32.4117 31.855 32.4946 31.7309 32.5511 31.5943C32.6076 31.4577 32.6367 31.3113 32.6365 31.1635C32.6364 31.0157 32.6071 30.8693 32.5504 30.7329C32.4936 30.5964 32.4105 30.4724 32.3058 30.3681L31.245 29.3073Z" fill="#21E786"/>
<path d="M17.4543 29.3073L16.3935 30.3681C16.2888 30.4724 16.2056 30.5964 16.1488 30.7329C16.092 30.8694 16.0627 31.0158 16.0625 31.1636C16.0623 31.3115 16.0913 31.4579 16.1479 31.5945C16.2044 31.7312 16.2873 31.8553 16.3918 31.9599C16.4964 32.0644 16.6205 32.1473 16.7571 32.2038C16.8938 32.2603 17.0402 32.2893 17.1881 32.2892C17.3359 32.289 17.4823 32.2597 17.6188 32.2029C17.7553 32.1461 17.8793 32.0629 17.9836 31.9581L19.0444 30.8974C19.1491 30.793 19.2322 30.6691 19.289 30.5326C19.3457 30.3961 19.375 30.2497 19.3751 30.1019C19.3752 29.9541 19.3462 29.8077 19.2897 29.6711C19.2332 29.5345 19.1503 29.4104 19.0458 29.3059C18.9413 29.2014 18.8172 29.1185 18.6806 29.062C18.544 29.0055 18.3976 28.9764 18.2498 28.9766C18.1019 28.9767 17.9556 29.006 17.8191 29.0627C17.6826 29.1195 17.5587 29.2026 17.4543 29.3073Z" fill="#21E786"/>
<path d="M17.4548 18.6953C17.5592 18.7999 17.6832 18.8828 17.8196 18.9394C17.9561 18.9961 18.1023 19.0252 18.2501 19.0253C18.3978 19.0254 18.5441 18.9963 18.6806 18.9398C18.8171 18.8833 18.9411 18.8005 19.0456 18.696C19.1501 18.5915 19.2329 18.4675 19.2894 18.331C19.3459 18.1945 19.375 18.0482 19.3749 17.9005C19.3749 17.7527 19.3457 17.6065 19.2891 17.47C19.2324 17.3336 19.1495 17.2096 19.0449 17.1052L17.9841 16.0444C17.8798 15.9395 17.7558 15.8563 17.6193 15.7994C17.4828 15.7425 17.3363 15.7131 17.1884 15.7129C17.0405 15.7127 16.894 15.7417 16.7573 15.7982C16.6206 15.8547 16.4964 15.9376 16.3918 16.0422C16.2872 16.1468 16.2043 16.271 16.1478 16.4077C16.0913 16.5444 16.0623 16.6909 16.0625 16.8388C16.0627 16.9867 16.0921 17.1332 16.149 17.2697C16.2059 17.4062 16.2892 17.5302 16.394 17.6345L17.4548 18.6953Z" fill="#21E786"/>
</svg>
